<svg id="svg" version="1.1" xmlns="http://www.w3.org/2000/svg" xmlns:xlink="http://www.w3.org/1999/xlink" width="400" height="105.08474576271186" viewBox="0, 0, 400,105.08474576271186"><g id="svgg"><path id="path0" d="M160.075 17.385 C 156.953 20.244,152.228 24.561,149.575 26.977 C 146.921 29.394,144.726 31.435,144.696 31.514 C 144.666 31.593,161.339 31.682,182.029 31.713 C 222.119 31.774,220.066 31.732,224.485 32.571 C 234.694 34.507,235.386 40.413,225.978 45.305 C 221.740 47.508,216.277 49.238,207.669 51.102 C 197.992 53.198,191.500 54.497,191.500 54.338 C 191.500 54.279,192.724 52.285,194.220 49.907 C 198.313 43.400,204.682 33.300,204.960 32.875 L 205.205 32.500 183.894 32.502 L 162.583 32.504 152.250 49.026 C 146.567 58.113,141.612 66.044,141.241 66.649 C 140.869 67.255,136.988 73.463,132.616 80.445 C 128.244 87.427,124.667 93.184,124.667 93.237 C 124.667 93.291,134.163 93.316,145.770 93.292 L 166.874 93.250 169.455 89.167 C 170.874 86.921,172.534 84.292,173.143 83.325 C 183.061 67.570,185.436 63.836,185.537 63.835 C 185.657 63.833,200.437 82.247,204.207 87.095 C 207.288 91.055,208.393 92.004,210.917 92.856 L 212.083 93.250 228.583 93.296 C 237.658 93.321,246.608 93.321,248.471 93.296 L 251.858 93.250 251.373 92.583 C 251.107 92.217,248.114 88.092,244.724 83.417 C 241.334 78.742,236.596 72.235,234.196 68.957 C 231.797 65.680,229.833 62.941,229.833 62.871 C 229.833 62.801,230.602 62.567,231.542 62.352 C 262.195 55.324,279.500 45.713,280.847 34.967 C 282.240 23.857,270.750 16.002,249.333 13.425 C 239.315 12.220,237.168 12.167,198.833 12.178 L 165.750 12.187 160.075 17.385 " stroke="none" fill="#44fb04" fill-rule="evenodd"></path><path id="path1" d="M297.229 12.956 C 296.141 14.123,293.638 16.804,291.668 18.914 C 289.698 21.024,288.011 22.832,287.918 22.931 C 287.826 23.031,286.325 24.634,284.583 26.493 C 282.842 28.352,281.357 29.977,281.283 30.104 C 281.170 30.298,285.996 30.334,313.117 30.335 C 349.733 30.337,352.223 30.401,355.527 31.438 C 358.189 32.273,359.167 33.408,359.167 35.663 C 359.167 41.530,352.288 46.979,338.940 51.688 C 334.115 53.391,323.075 56.298,322.734 55.956 C 322.684 55.906,323.185 54.865,323.847 53.641 C 324.509 52.418,325.740 50.142,326.583 48.583 C 327.426 47.025,328.514 45.000,329.000 44.083 C 329.485 43.167,330.537 41.217,331.336 39.750 C 332.135 38.283,333.107 36.483,333.496 35.750 C 333.886 35.017,334.571 33.732,335.019 32.896 C 335.467 32.060,335.833 31.328,335.833 31.270 C 335.833 31.212,327.678 31.184,317.711 31.208 L 299.589 31.250 297.744 34.667 C 295.279 39.230,293.200 43.099,291.743 45.833 C 290.617 47.947,288.208 52.441,283.836 60.583 C 282.802 62.508,281.376 65.171,280.667 66.500 C 279.957 67.829,278.531 70.492,277.497 72.417 C 269.092 88.069,266.833 92.301,266.833 92.402 C 266.833 92.456,275.040 92.500,285.071 92.500 L 303.308 92.500 304.429 90.375 C 305.045 89.206,305.753 87.875,306.002 87.417 C 306.251 86.958,307.226 85.121,308.168 83.333 C 310.161 79.553,310.810 78.325,312.276 75.553 C 313.492 73.255,313.126 73.486,316.167 73.093 C 341.519 69.812,368.817 62.085,382.833 54.222 C 394.858 47.476,400.000 40.743,400.000 31.744 C 400.000 18.851,389.482 12.482,365.750 11.001 C 364.134 10.900,350.501 10.834,331.146 10.834 L 299.208 10.833 297.229 12.956 M32.750 11.655 C 32.567 11.735,31.859 12.389,31.178 13.109 C 30.497 13.828,26.276 18.183,21.799 22.786 L 13.657 31.155 47.620 31.210 C 86.836 31.274,86.662 31.267,92.833 33.112 C 105.455 36.886,105.859 48.277,93.793 60.182 C 84.896 68.961,67.052 76.395,50.833 78.077 C 49.504 78.215,48.130 78.360,47.779 78.400 C 46.991 78.489,46.933 78.662,48.816 75.333 C 49.621 73.912,51.165 71.175,52.249 69.250 C 53.332 67.325,54.835 64.662,55.589 63.333 C 56.342 62.004,58.519 58.142,60.426 54.750 C 65.192 46.272,67.240 42.634,69.385 38.833 C 72.782 32.815,73.167 32.126,73.167 32.062 C 73.167 32.027,64.573 32.018,54.069 32.041 L 34.972 32.083 31.967 37.417 C 29.062 42.574,26.509 47.124,21.915 55.333 C 16.776 64.518,14.745 68.141,12.667 71.833 C 10.449 75.774,7.643 80.781,3.423 88.333 C 2.168 90.579,1.035 92.583,0.904 92.786 C 0.774 92.989,0.667 93.202,0.667 93.260 C 0.667 93.443,43.063 93.219,45.667 93.021 C 46.996 92.920,49.658 92.720,51.583 92.577 C 76.699 90.703,101.266 83.765,117.833 73.868 C 132.232 65.267,142.268 53.452,143.912 43.167 C 146.698 25.746,130.039 14.451,97.667 11.811 C 94.897 11.586,33.250 11.437,32.750 11.655 " stroke="none" fill="#fbfbfb" fill-rule="evenodd"></path><path id="path2" d="M0.000 52.500 L 0.000 105.000 200.000 105.000 L 400.000 105.000 399.977 70.375 C 399.965 51.331,399.920 35.933,399.878 36.156 C 398.440 43.810,388.789 52.400,375.250 58.075 C 374.242 58.497,373.079 58.987,372.667 59.164 C 369.254 60.621,361.916 63.159,356.333 64.813 C 354.086 65.479,348.758 66.928,348.000 67.080 C 347.679 67.145,346.892 67.340,346.250 67.514 C 343.467 68.269,333.223 70.466,330.750 70.839 C 330.108 70.936,329.314 71.086,328.986 71.173 C 328.657 71.260,327.457 71.476,326.319 71.654 C 325.181 71.831,323.313 72.128,322.167 72.314 C 319.567 72.736,314.575 73.480,313.945 73.539 C 313.418 73.588,313.463 73.519,311.252 77.750 C 310.534 79.125,309.546 80.984,309.056 81.881 C 308.567 82.778,308.167 83.544,308.167 83.583 C 308.167 83.622,307.727 84.463,307.190 85.452 C 306.653 86.441,305.743 88.150,305.167 89.250 C 304.592 90.350,303.938 91.567,303.714 91.954 L 303.307 92.658 285.081 92.664 C 273.335 92.669,266.820 92.613,266.754 92.507 C 266.699 92.417,267.133 91.460,267.720 90.380 C 268.306 89.300,269.201 87.629,269.709 86.667 C 270.216 85.704,271.240 83.800,271.982 82.435 C 272.725 81.071,273.333 79.930,273.333 79.902 C 273.333 79.873,274.158 78.342,275.167 76.500 C 276.175 74.658,277.000 73.119,277.000 73.081 C 277.000 73.043,277.664 71.791,278.476 70.298 C 279.288 68.805,280.388 66.758,280.922 65.750 C 281.455 64.742,282.441 62.912,283.112 61.685 C 283.784 60.457,284.333 59.422,284.333 59.385 C 284.333 59.348,284.997 58.102,285.808 56.617 C 286.620 55.132,287.679 53.167,288.162 52.250 C 288.646 51.333,289.511 49.721,290.085 48.667 C 290.659 47.612,291.407 46.225,291.747 45.583 C 293.280 42.693,294.105 41.156,294.777 39.938 C 295.174 39.216,295.500 38.601,295.500 38.571 C 295.500 38.540,296.318 37.018,297.318 35.187 C 298.318 33.356,299.186 31.703,299.246 31.513 L 299.356 31.167 317.678 31.167 C 327.755 31.167,336.000 31.216,336.000 31.276 C 336.000 31.336,335.747 31.842,335.437 32.401 C 335.128 32.959,334.556 34.017,334.166 34.750 C 333.190 36.588,329.205 43.976,326.750 48.500 C 324.328 52.963,322.811 55.833,322.873 55.833 C 323.101 55.833,326.638 55.096,328.083 54.747 C 337.911 52.372,346.956 48.855,351.983 45.451 C 352.497 45.104,353.217 44.624,353.583 44.385 C 354.927 43.508,357.376 40.822,358.042 39.494 C 360.469 34.653,358.907 31.861,353.333 31.079 C 349.454 30.534,347.153 30.500,314.161 30.500 C 295.953 30.500,281.005 30.449,280.943 30.387 C 280.881 30.325,281.450 29.632,282.208 28.846 C 283.529 27.475,284.856 26.059,290.499 20.000 C 291.908 18.487,294.003 16.238,295.155 15.001 C 296.307 13.764,297.696 12.280,298.240 11.704 L 299.230 10.656 332.240 10.711 C 356.192 10.752,365.845 10.822,367.417 10.967 C 368.608 11.077,370.446 11.244,371.500 11.339 C 387.407 12.768,397.608 18.450,399.764 27.083 C 399.935 27.771,399.974 25.470,399.986 13.958 L 400.000 0.000 200.000 0.000 L 0.000 0.000 0.000 52.500 M100.917 11.964 C 126.861 14.486,142.377 23.457,144.186 36.982 C 145.972 50.336,133.465 66.097,112.455 76.969 C 107.894 79.329,103.115 81.351,97.250 83.403 C 92.412 85.095,88.522 86.276,84.000 87.424 C 72.859 90.254,59.468 92.336,48.667 92.919 C 47.704 92.971,45.717 93.091,44.250 93.186 C 41.369 93.372,1.175 93.603,0.739 93.435 C 0.437 93.319,0.140 93.905,3.831 87.333 C 5.145 84.996,7.058 81.583,8.083 79.750 C 9.108 77.917,10.119 76.117,10.329 75.750 C 10.539 75.383,11.591 73.508,12.667 71.583 C 13.743 69.658,15.656 66.246,16.919 64.000 C 18.182 61.754,19.383 59.617,19.587 59.250 C 22.338 54.319,23.843 51.631,24.160 51.083 C 24.372 50.717,25.425 48.842,26.500 46.917 C 27.575 44.992,28.625 43.117,28.834 42.750 C 29.451 41.663,32.974 35.382,33.951 33.625 L 34.855 32.000 54.100 32.000 L 73.345 32.000 73.150 32.375 C 73.042 32.581,72.485 33.575,71.912 34.583 C 71.338 35.592,70.175 37.654,69.327 39.167 C 68.479 40.679,66.961 43.379,65.953 45.167 C 64.945 46.954,63.954 48.717,63.751 49.083 C 63.547 49.450,62.724 50.913,61.921 52.333 C 61.117 53.754,60.253 55.292,59.999 55.750 C 59.746 56.208,58.921 57.671,58.167 59.000 C 57.412 60.329,55.953 62.917,54.923 64.750 C 53.894 66.583,52.880 68.383,52.670 68.750 C 52.460 69.117,51.634 70.579,50.834 72.000 C 50.034 73.421,48.920 75.399,48.357 76.396 C 47.794 77.392,47.333 78.243,47.333 78.287 C 47.333 78.867,60.465 76.522,65.250 75.088 C 82.872 69.806,93.606 62.678,100.046 51.980 C 104.876 43.956,102.515 36.658,94.123 33.670 C 87.589 31.343,84.330 31.182,43.778 31.173 C 25.475 31.169,13.661 31.106,13.694 31.013 C 13.725 30.929,15.063 29.520,16.667 27.883 C 21.153 23.305,29.453 14.762,31.091 13.036 L 32.559 11.490 64.905 11.549 C 96.460 11.606,97.340 11.616,100.917 11.964 M231.667 12.165 C 238.788 12.318,240.098 12.394,246.280 13.006 C 264.512 14.814,275.807 19.669,279.591 27.325 C 281.783 31.761,281.394 36.971,278.570 41.019 C 273.049 48.931,257.153 56.306,233.333 62.008 C 232.096 62.304,230.802 62.614,230.458 62.696 L 229.832 62.846 230.520 63.777 C 232.032 65.824,235.592 70.692,236.882 72.476 C 237.634 73.517,238.625 74.879,239.083 75.501 C 239.542 76.124,240.288 77.147,240.742 77.775 C 243.773 81.970,250.517 91.269,251.180 92.167 C 251.619 92.763,251.921 93.309,251.851 93.380 C 251.780 93.452,242.916 93.488,232.153 93.461 L 212.583 93.412 211.281 93.043 C 208.454 92.243,207.314 91.278,203.757 86.667 C 202.661 85.246,200.594 82.621,199.165 80.833 C 196.573 77.593,185.658 63.959,185.584 63.870 C 185.563 63.844,184.879 64.877,184.064 66.164 C 183.250 67.452,182.381 68.823,182.134 69.211 C 181.888 69.599,181.452 70.292,181.166 70.750 C 180.881 71.208,180.258 72.198,179.782 72.950 C 179.306 73.702,178.527 74.940,178.051 75.700 C 177.574 76.461,174.867 80.758,172.034 85.250 L 166.883 93.417 145.691 93.459 C 134.036 93.482,124.500 93.451,124.500 93.390 C 124.500 93.284,125.408 91.772,126.586 89.917 C 126.877 89.458,128.636 86.646,130.496 83.667 C 132.356 80.688,134.149 77.822,134.480 77.299 C 134.812 76.776,135.329 75.951,135.628 75.466 C 135.928 74.980,137.820 71.958,139.834 68.750 C 141.847 65.542,143.837 62.354,144.255 61.667 C 145.872 59.009,162.330 32.770,162.464 32.636 C 162.607 32.493,204.985 32.430,205.128 32.572 C 205.170 32.615,204.278 34.117,203.144 35.910 C 202.011 37.704,200.258 40.482,199.250 42.084 C 198.242 43.685,196.092 47.097,194.472 49.665 C 192.853 52.232,191.555 54.333,191.589 54.333 C 192.013 54.333,207.049 51.173,211.833 50.078 C 232.948 45.247,239.719 35.513,224.000 32.587 C 219.650 31.778,219.733 31.779,181.002 31.679 L 144.421 31.583 148.430 27.917 C 150.634 25.900,153.143 23.613,154.005 22.833 C 154.867 22.054,156.062 20.961,156.661 20.405 C 157.260 19.848,158.654 18.573,159.759 17.571 C 160.864 16.570,162.428 15.150,163.235 14.417 C 164.041 13.683,164.974 12.840,165.309 12.542 L 165.917 12.000 195.250 12.006 C 211.383 12.010,227.771 12.081,231.667 12.165 " stroke="none" fill="#141414" fill-rule="evenodd"></path><path id="path3" d="M362.375 10.782 C 362.535 10.823,362.798 10.823,362.958 10.782 C 363.119 10.740,362.988 10.705,362.667 10.705 C 362.346 10.705,362.215 10.740,362.375 10.782 M297.740 12.208 L 297.250 12.750 297.792 12.260 C 298.297 11.804,298.410 11.667,298.281 11.667 C 298.252 11.667,298.009 11.910,297.740 12.208 M31.410 12.708 L 30.583 13.583 31.458 12.756 C 31.940 12.301,32.333 11.908,32.333 11.881 C 32.333 11.757,32.179 11.895,31.410 12.708 M181.138 12.125 C 189.602 12.149,203.402 12.149,211.805 12.125 C 220.208 12.101,213.283 12.082,196.417 12.082 C 179.550 12.082,172.675 12.101,181.138 12.125 M234.042 12.289 C 234.477 12.324,235.190 12.324,235.625 12.289 C 236.060 12.255,235.704 12.227,234.833 12.227 C 233.963 12.227,233.606 12.255,234.042 12.289 M237.796 12.456 C 238.188 12.491,238.788 12.490,239.129 12.454 C 239.471 12.419,239.150 12.390,238.417 12.390 C 237.683 12.391,237.404 12.420,237.796 12.456 M240.960 12.618 C 241.168 12.658,241.468 12.656,241.627 12.615 C 241.786 12.573,241.617 12.540,241.250 12.542 C 240.883 12.544,240.753 12.578,240.960 12.618 M248.042 13.282 C 248.202 13.323,248.465 13.323,248.625 13.282 C 248.785 13.240,248.654 13.205,248.333 13.205 C 248.012 13.205,247.881 13.240,248.042 13.282 M160.909 16.542 L 160.250 17.250 160.958 16.591 C 161.617 15.978,161.743 15.833,161.617 15.833 C 161.590 15.833,161.271 16.152,160.909 16.542 M158.909 18.375 L 158.250 19.083 158.958 18.425 C 159.617 17.812,159.743 17.667,159.617 17.667 C 159.590 17.667,159.271 17.985,158.909 18.375 M157.167 19.917 C 156.762 20.329,156.468 20.667,156.514 20.667 C 156.560 20.667,156.928 20.329,157.333 19.917 C 157.738 19.504,158.032 19.167,157.986 19.167 C 157.940 19.167,157.572 19.504,157.167 19.917 M154.991 21.958 L 154.417 22.583 155.042 22.009 C 155.623 21.474,155.743 21.333,155.616 21.333 C 155.588 21.333,155.307 21.615,154.991 21.958 M276.583 23.333 C 277.128 23.883,277.610 24.333,277.656 24.333 C 277.702 24.333,277.294 23.883,276.750 23.333 C 276.206 22.783,275.723 22.333,275.677 22.333 C 275.631 22.333,276.039 22.783,276.583 23.333 M19.991 24.458 L 19.417 25.083 20.042 24.509 C 20.385 24.193,20.667 23.912,20.667 23.884 C 20.667 23.757,20.526 23.877,19.991 24.458 M151.500 25.083 C 151.095 25.496,150.801 25.833,150.847 25.833 C 150.893 25.833,151.262 25.496,151.667 25.083 C 152.072 24.671,152.365 24.333,152.319 24.333 C 152.274 24.333,151.905 24.671,151.500 25.083 M149.575 26.875 L 148.917 27.583 149.625 26.925 C 150.015 26.562,150.333 26.243,150.333 26.216 C 150.333 26.090,150.188 26.216,149.575 26.875 M283.906 27.042 L 283.417 27.583 283.958 27.094 C 284.463 26.638,284.577 26.500,284.448 26.500 C 284.419 26.500,284.175 26.744,283.906 27.042 M147.742 28.542 L 147.083 29.250 147.792 28.591 C 148.181 28.229,148.500 27.910,148.500 27.883 C 148.500 27.757,148.355 27.883,147.742 28.542 M14.410 30.208 L 13.583 31.083 14.458 30.256 C 15.271 29.488,15.410 29.333,15.285 29.333 C 15.259 29.333,14.865 29.727,14.410 30.208 M281.255 29.828 C 280.896 30.203,280.838 30.345,281.015 30.413 C 281.144 30.462,295.537 30.483,313.000 30.459 L 344.750 30.416 312.844 30.375 L 280.938 30.333 281.417 29.833 C 281.680 29.558,281.858 29.333,281.812 29.333 C 281.767 29.333,281.516 29.556,281.255 29.828 M145.742 30.375 L 145.083 31.083 145.792 30.425 C 146.450 29.812,146.577 29.667,146.450 29.667 C 146.423 29.667,146.105 29.985,145.742 30.375 M214.542 31.790 C 215.069 31.823,215.931 31.823,216.458 31.790 C 216.985 31.757,216.554 31.730,215.500 31.730 C 214.446 31.730,214.015 31.757,214.542 31.790 M280.875 32.250 C 280.877 32.617,280.911 32.747,280.951 32.540 C 280.991 32.332,280.990 32.032,280.948 31.873 C 280.906 31.714,280.874 31.883,280.875 32.250 M218.711 31.953 C 218.964 31.991,219.339 31.990,219.544 31.951 C 219.749 31.911,219.542 31.880,219.083 31.881 C 218.625 31.882,218.457 31.915,218.711 31.953 M280.872 34.833 C 280.872 35.154,280.906 35.285,280.948 35.125 C 280.990 34.965,280.990 34.702,280.948 34.542 C 280.906 34.381,280.872 34.512,280.872 34.833 M144.205 38.000 C 144.205 38.321,144.240 38.452,144.282 38.292 C 144.323 38.131,144.323 37.869,144.282 37.708 C 144.240 37.548,144.205 37.679,144.205 38.000 M230.410 42.208 L 229.583 43.083 230.458 42.256 C 231.271 41.488,231.410 41.333,231.285 41.333 C 231.259 41.333,230.865 41.727,230.410 42.208 M275.909 44.042 L 275.250 44.750 275.958 44.091 C 276.348 43.729,276.667 43.410,276.667 43.383 C 276.667 43.257,276.522 43.383,275.909 44.042 M393.491 46.625 L 392.917 47.250 393.542 46.676 C 394.123 46.141,394.243 46.000,394.116 46.000 C 394.088 46.000,393.807 46.281,393.491 46.625 M233.833 68.500 C 234.029 68.775,234.227 69.000,234.273 69.000 C 234.319 69.000,234.196 68.775,234.000 68.500 C 233.804 68.225,233.606 68.000,233.561 68.000 C 233.515 68.000,233.638 68.225,233.833 68.500 M235.667 71.000 C 235.862 71.275,236.060 71.500,236.106 71.500 C 236.152 71.500,236.029 71.275,235.833 71.000 C 235.638 70.725,235.440 70.500,235.394 70.500 C 235.348 70.500,235.471 70.725,235.667 71.000 M207.000 90.583 C 207.591 91.179,208.111 91.667,208.157 91.667 C 208.203 91.667,207.757 91.179,207.167 90.583 C 206.576 89.987,206.055 89.500,206.010 89.500 C 205.964 89.500,206.409 89.987,207.000 90.583 M275.708 92.625 C 280.635 92.649,288.698 92.649,293.625 92.625 C 298.552 92.600,294.521 92.580,284.667 92.580 C 274.813 92.580,270.781 92.600,275.708 92.625 M166.899 93.168 C 166.787 93.279,159.634 93.321,145.615 93.293 C 134.002 93.269,124.500 93.306,124.500 93.375 C 124.500 93.646,166.774 93.522,167.000 93.250 C 167.233 92.969,167.158 92.909,166.899 93.168 M251.734 93.141 C 251.824 93.286,247.131 93.343,232.718 93.374 L 213.583 93.415 232.658 93.458 C 250.410 93.498,252.440 93.458,251.822 93.076 C 251.689 92.994,251.657 93.017,251.734 93.141 M0.642 93.376 C 0.712 93.445,8.714 93.482,18.426 93.459 L 36.083 93.417 18.300 93.333 C 8.519 93.287,0.573 93.307,0.642 93.376 M41.542 93.282 C 41.702 93.323,41.965 93.323,42.125 93.282 C 42.285 93.240,42.154 93.205,41.833 93.205 C 41.512 93.205,41.381 93.240,41.542 93.282 " stroke="none" fill="#405b37" fill-rule="evenodd"></path><path id="path4" d="M298.740 11.208 L 298.250 11.750 298.759 11.292 L 299.267 10.834 330.759 10.792 L 362.250 10.749 330.740 10.708 L 299.229 10.667 298.740 11.208 M364.458 10.951 C 364.665 10.991,365.002 10.991,365.208 10.951 C 365.415 10.911,365.246 10.879,364.833 10.879 C 364.421 10.879,364.252 10.911,364.458 10.951 M371.208 11.448 C 371.369 11.490,371.631 11.490,371.792 11.448 C 371.952 11.406,371.821 11.372,371.500 11.372 C 371.179 11.372,371.048 11.406,371.208 11.448 M91.458 11.623 C 92.031 11.656,92.969 11.656,93.542 11.623 C 94.115 11.591,93.646 11.564,92.500 11.564 C 91.354 11.564,90.885 11.591,91.458 11.623 M372.708 11.615 C 372.869 11.657,373.131 11.657,373.292 11.615 C 373.452 11.573,373.321 11.539,373.000 11.539 C 372.679 11.539,372.548 11.573,372.708 11.615 M96.292 11.784 C 96.498 11.824,96.835 11.824,97.042 11.784 C 97.248 11.745,97.079 11.712,96.667 11.712 C 96.254 11.712,96.085 11.745,96.292 11.784 M104.042 12.448 C 104.202 12.490,104.465 12.490,104.625 12.448 C 104.785 12.406,104.654 12.372,104.333 12.372 C 104.013 12.372,103.881 12.406,104.042 12.448 M296.740 13.375 L 296.250 13.917 296.792 13.427 C 297.297 12.971,297.410 12.833,297.281 12.833 C 297.252 12.833,297.009 13.077,296.740 13.375 M28.833 15.417 C 28.150 16.104,27.629 16.667,27.675 16.667 C 27.721 16.667,28.317 16.104,29.000 15.417 C 29.683 14.729,30.204 14.167,30.158 14.167 C 30.112 14.167,29.516 14.729,28.833 15.417 M294.333 15.917 C 293.928 16.329,293.635 16.667,293.681 16.667 C 293.726 16.667,294.095 16.329,294.500 15.917 C 294.905 15.504,295.199 15.167,295.153 15.167 C 295.107 15.167,294.738 15.504,294.333 15.917 M291.911 18.542 L 290.917 19.583 291.958 18.589 C 292.531 18.041,293.000 17.573,293.000 17.547 C 293.000 17.424,292.836 17.574,291.911 18.542 M23.414 21.042 L 21.583 22.917 23.458 21.086 C 24.490 20.079,25.333 19.236,25.333 19.211 C 25.333 19.091,25.114 19.300,23.414 21.042 M395.500 20.083 C 395.811 20.404,396.103 20.667,396.149 20.667 C 396.195 20.667,395.978 20.404,395.667 20.083 C 395.356 19.762,395.064 19.500,395.018 19.500 C 394.972 19.500,395.189 19.762,395.500 20.083 M289.667 20.917 C 289.262 21.329,288.968 21.667,289.014 21.667 C 289.060 21.667,289.428 21.329,289.833 20.917 C 290.238 20.504,290.532 20.167,290.486 20.167 C 290.440 20.167,290.072 20.504,289.667 20.917 M287.158 23.625 L 286.583 24.250 287.208 23.676 C 287.790 23.141,287.910 23.000,287.783 23.000 C 287.755 23.000,287.474 23.281,287.158 23.625 M138.167 25.417 C 138.757 26.012,139.278 26.500,139.324 26.500 C 139.370 26.500,138.924 26.012,138.333 25.417 C 137.743 24.821,137.222 24.333,137.176 24.333 C 137.130 24.333,137.576 24.821,138.167 25.417 M17.664 26.958 L 15.917 28.750 17.708 27.003 C 18.694 26.042,19.500 25.236,19.500 25.211 C 19.500 25.091,19.286 25.294,17.664 26.958 M285.075 25.875 L 284.417 26.583 285.125 25.925 C 285.515 25.562,285.833 25.243,285.833 25.216 C 285.833 25.090,285.688 25.216,285.075 25.875 M282.500 28.583 C 282.095 28.996,281.801 29.333,281.847 29.333 C 281.893 29.333,282.262 28.996,282.667 28.583 C 283.072 28.171,283.365 27.833,283.319 27.833 C 283.274 27.833,282.905 28.171,282.500 28.583 M345.042 30.453 C 345.294 30.491,345.706 30.491,345.958 30.453 C 346.210 30.415,346.004 30.383,345.500 30.383 C 344.996 30.383,344.790 30.415,345.042 30.453 M349.127 30.618 C 349.334 30.658,349.634 30.656,349.794 30.615 C 349.953 30.573,349.783 30.540,349.417 30.542 C 349.050 30.544,348.920 30.578,349.127 30.618 M351.208 30.782 C 351.369 30.823,351.631 30.823,351.792 30.782 C 351.952 30.740,351.821 30.705,351.500 30.705 C 351.179 30.705,351.048 30.740,351.208 30.782 M76.465 31.290 C 77.041 31.323,77.941 31.323,78.465 31.290 C 78.988 31.257,78.517 31.230,77.417 31.230 C 76.317 31.231,75.888 31.258,76.465 31.290 M81.542 31.448 C 81.702 31.490,81.965 31.490,82.125 31.448 C 82.285 31.406,82.154 31.372,81.833 31.372 C 81.512 31.372,81.381 31.406,81.542 31.448 M85.375 31.782 C 85.535 31.823,85.798 31.823,85.958 31.782 C 86.119 31.740,85.987 31.705,85.667 31.705 C 85.346 31.705,85.215 31.740,85.375 31.782 M298.583 32.833 C 298.441 33.108,298.362 33.333,298.408 33.333 C 298.454 33.333,298.608 33.108,298.750 32.833 C 298.892 32.558,298.971 32.333,298.925 32.333 C 298.879 32.333,298.726 32.558,298.583 32.833 M334.750 33.333 C 334.608 33.608,334.529 33.833,334.575 33.833 C 334.621 33.833,334.774 33.608,334.917 33.333 C 335.059 33.058,335.138 32.833,335.092 32.833 C 335.046 32.833,334.892 33.058,334.750 33.333 M33.750 34.000 C 33.608 34.275,33.529 34.500,33.575 34.500 C 33.621 34.500,33.774 34.275,33.917 34.000 C 34.059 33.725,34.138 33.500,34.092 33.500 C 34.046 33.500,33.892 33.725,33.750 34.000 M144.224 39.750 C 144.224 40.483,144.254 40.763,144.289 40.371 C 144.324 39.979,144.324 39.379,144.288 39.037 C 144.252 38.696,144.223 39.017,144.224 39.750 M294.833 39.833 C 294.646 40.200,294.531 40.500,294.577 40.500 C 294.622 40.500,294.813 40.200,295.000 39.833 C 295.187 39.467,295.303 39.167,295.257 39.167 C 295.211 39.167,295.020 39.467,294.833 39.833 M355.662 42.625 L 354.583 43.750 355.708 42.671 C 356.327 42.078,356.833 41.572,356.833 41.546 C 356.833 41.424,356.664 41.580,355.662 42.625 M102.556 44.667 C 102.556 45.354,102.585 45.635,102.621 45.292 C 102.657 44.948,102.657 44.385,102.621 44.042 C 102.585 43.698,102.556 43.979,102.556 44.667 M394.491 45.458 L 393.917 46.083 394.542 45.509 C 395.123 44.974,395.243 44.833,395.116 44.833 C 395.088 44.833,394.807 45.115,394.491 45.458 M291.083 46.833 C 290.941 47.108,290.862 47.333,290.908 47.333 C 290.954 47.333,291.108 47.108,291.250 46.833 C 291.392 46.558,291.471 46.333,291.425 46.333 C 291.379 46.333,291.226 46.558,291.083 46.833 M392.500 47.417 C 392.095 47.829,391.801 48.167,391.847 48.167 C 391.893 48.167,392.262 47.829,392.667 47.417 C 393.072 47.004,393.365 46.667,393.319 46.667 C 393.274 46.667,392.905 47.004,392.500 47.417 M287.417 53.667 C 287.274 53.942,287.196 54.167,287.241 54.167 C 287.287 54.167,287.441 53.942,287.583 53.667 C 287.726 53.392,287.804 53.167,287.759 53.167 C 287.713 53.167,287.559 53.392,287.417 53.667 M95.406 58.375 L 94.917 58.917 95.458 58.427 C 95.756 58.158,96.000 57.914,96.000 57.885 C 96.000 57.757,95.862 57.870,95.406 58.375 M283.750 60.500 C 283.608 60.775,283.529 61.000,283.575 61.000 C 283.621 61.000,283.774 60.775,283.917 60.500 C 284.059 60.225,284.138 60.000,284.092 60.000 C 284.046 60.000,283.892 60.225,283.750 60.500 M92.073 61.708 L 91.583 62.250 92.125 61.760 C 92.423 61.491,92.667 61.248,92.667 61.219 C 92.667 61.090,92.529 61.203,92.073 61.708 M132.245 62.875 L 131.250 63.917 132.292 62.922 C 132.865 62.375,133.333 61.906,133.333 61.880 C 133.333 61.757,133.169 61.907,132.245 62.875 M129.658 65.292 L 129.083 65.917 129.708 65.342 C 130.290 64.808,130.410 64.667,130.283 64.667 C 130.255 64.667,129.974 64.948,129.658 65.292 M15.250 67.000 C 15.108 67.275,15.029 67.500,15.075 67.500 C 15.121 67.500,15.274 67.275,15.417 67.000 C 15.559 66.725,15.638 66.500,15.592 66.500 C 15.546 66.500,15.392 66.725,15.250 67.000 M280.000 67.500 C 279.813 67.867,279.697 68.167,279.743 68.167 C 279.789 68.167,279.980 67.867,280.167 67.500 C 280.354 67.133,280.469 66.833,280.423 66.833 C 280.378 66.833,280.187 67.133,280.000 67.500 M276.250 74.500 C 276.108 74.775,276.029 75.000,276.075 75.000 C 276.121 75.000,276.274 74.775,276.417 74.500 C 276.559 74.225,276.638 74.000,276.592 74.000 C 276.546 74.000,276.392 74.225,276.250 74.500 M51.708 77.948 C 51.869 77.990,52.131 77.990,52.292 77.948 C 52.452 77.906,52.321 77.872,52.000 77.872 C 51.679 77.872,51.548 77.906,51.708 77.948 M268.917 88.167 C 268.774 88.442,268.696 88.667,268.741 88.667 C 268.787 88.667,268.941 88.442,269.083 88.167 C 269.226 87.892,269.304 87.667,269.259 87.667 C 269.213 87.667,269.059 87.892,268.917 88.167 M53.960 92.451 C 54.168 92.491,54.468 92.490,54.627 92.448 C 54.786 92.406,54.617 92.374,54.250 92.375 C 53.883 92.377,53.753 92.411,53.960 92.451 M51.792 92.618 C 51.998 92.657,52.335 92.657,52.542 92.618 C 52.748 92.578,52.579 92.545,52.167 92.545 C 51.754 92.545,51.585 92.578,51.792 92.618 M49.625 92.784 C 49.831 92.824,50.169 92.824,50.375 92.784 C 50.581 92.745,50.413 92.712,50.000 92.712 C 49.587 92.712,49.419 92.745,49.625 92.784 M47.127 92.951 C 47.334 92.991,47.634 92.990,47.794 92.948 C 47.953 92.906,47.783 92.874,47.417 92.875 C 47.050 92.877,46.920 92.911,47.127 92.951 M44.208 93.115 C 44.369 93.157,44.631 93.157,44.792 93.115 C 44.952 93.073,44.821 93.039,44.500 93.039 C 44.179 93.039,44.048 93.073,44.208 93.115 M39.292 93.289 C 39.681 93.324,40.319 93.324,40.708 93.289 C 41.098 93.254,40.779 93.225,40.000 93.225 C 39.221 93.225,38.902 93.254,39.292 93.289 " stroke="none" fill="#6c6c6c" fill-rule="evenodd"></path></g></svg>